<mxfile host="app.diagrams.net" modified="2021-10-19T17:09:09.990Z" agent="5.0 (Windows NT 10.0; Win64; x64) AppleWebKit/537.36 (KHTML, like Gecko) Chrome/94.0.4606.81 Safari/537.36" etag="EKF32CsAb3Fq0mzGTaEI" version="15.5.5" type="github">
  <diagram id="C5RBs43oDa-KdzZeNtuy" name="Page-1">
    <mxGraphModel dx="981" dy="579" grid="1" gridSize="10" guides="1" tooltips="1" connect="1" arrows="1" fold="1" page="1" pageScale="1" pageWidth="827" pageHeight="1169" math="0" shadow="0">
      <root>
        <mxCell id="WIyWlLk6GJQsqaUBKTNV-0" />
        <mxCell id="WIyWlLk6GJQsqaUBKTNV-1" parent="WIyWlLk6GJQsqaUBKTNV-0" />
        <mxCell id="ZSKaTCZfCcyE3yUoJDAZ-0" value="&lt;span style=&quot;color: rgb(95 , 99 , 104) ; font-family: &amp;#34;roboto&amp;#34; , &amp;#34;robotodraft&amp;#34; , &amp;#34;helvetica&amp;#34; , &amp;#34;arial&amp;#34; , sans-serif ; font-size: 14px ; letter-spacing: 0.2px ; background-color: rgb(255 , 255 , 255)&quot;&gt;Verilmis ədədin 2-nin qüvvəti olub olmadığını yoxlayan&amp;nbsp;algorithm qurun;&lt;/span&gt;" style="text;html=1;strokeColor=none;fillColor=none;align=center;verticalAlign=middle;whiteSpace=wrap;rounded=0;" vertex="1" parent="WIyWlLk6GJQsqaUBKTNV-1">
          <mxGeometry x="180" y="20" width="290" height="30" as="geometry" />
        </mxCell>
        <mxCell id="ZSKaTCZfCcyE3yUoJDAZ-4" value="" style="edgeStyle=orthogonalEdgeStyle;rounded=0;orthogonalLoop=1;jettySize=auto;html=1;" edge="1" parent="WIyWlLk6GJQsqaUBKTNV-1" source="ZSKaTCZfCcyE3yUoJDAZ-2" target="ZSKaTCZfCcyE3yUoJDAZ-3">
          <mxGeometry relative="1" as="geometry" />
        </mxCell>
        <mxCell id="ZSKaTCZfCcyE3yUoJDAZ-2" value="Start" style="ellipse;whiteSpace=wrap;html=1;" vertex="1" parent="WIyWlLk6GJQsqaUBKTNV-1">
          <mxGeometry x="265" y="70" width="120" height="80" as="geometry" />
        </mxCell>
        <mxCell id="ZSKaTCZfCcyE3yUoJDAZ-6" value="" style="edgeStyle=orthogonalEdgeStyle;rounded=0;orthogonalLoop=1;jettySize=auto;html=1;" edge="1" parent="WIyWlLk6GJQsqaUBKTNV-1" source="ZSKaTCZfCcyE3yUoJDAZ-3" target="ZSKaTCZfCcyE3yUoJDAZ-5">
          <mxGeometry relative="1" as="geometry" />
        </mxCell>
        <mxCell id="ZSKaTCZfCcyE3yUoJDAZ-3" value="let n,pow=1" style="shape=parallelogram;perimeter=parallelogramPerimeter;whiteSpace=wrap;html=1;fixedSize=1;" vertex="1" parent="WIyWlLk6GJQsqaUBKTNV-1">
          <mxGeometry x="265" y="190" width="120" height="60" as="geometry" />
        </mxCell>
        <mxCell id="ZSKaTCZfCcyE3yUoJDAZ-8" value="" style="edgeStyle=orthogonalEdgeStyle;rounded=0;orthogonalLoop=1;jettySize=auto;html=1;" edge="1" parent="WIyWlLk6GJQsqaUBKTNV-1" source="ZSKaTCZfCcyE3yUoJDAZ-5" target="ZSKaTCZfCcyE3yUoJDAZ-7">
          <mxGeometry relative="1" as="geometry" />
        </mxCell>
        <mxCell id="ZSKaTCZfCcyE3yUoJDAZ-9" value="TRUE" style="edgeLabel;html=1;align=center;verticalAlign=middle;resizable=0;points=[];" vertex="1" connectable="0" parent="ZSKaTCZfCcyE3yUoJDAZ-8">
          <mxGeometry x="-0.2149" y="-1" relative="1" as="geometry">
            <mxPoint as="offset" />
          </mxGeometry>
        </mxCell>
        <mxCell id="ZSKaTCZfCcyE3yUoJDAZ-10" style="edgeStyle=orthogonalEdgeStyle;rounded=0;orthogonalLoop=1;jettySize=auto;html=1;" edge="1" parent="WIyWlLk6GJQsqaUBKTNV-1" source="ZSKaTCZfCcyE3yUoJDAZ-5">
          <mxGeometry relative="1" as="geometry">
            <mxPoint x="325" y="520" as="targetPoint" />
          </mxGeometry>
        </mxCell>
        <mxCell id="ZSKaTCZfCcyE3yUoJDAZ-11" value="FALSE" style="edgeLabel;html=1;align=center;verticalAlign=middle;resizable=0;points=[];" vertex="1" connectable="0" parent="ZSKaTCZfCcyE3yUoJDAZ-10">
          <mxGeometry x="-0.2597" y="1" relative="1" as="geometry">
            <mxPoint as="offset" />
          </mxGeometry>
        </mxCell>
        <mxCell id="ZSKaTCZfCcyE3yUoJDAZ-5" value="num&amp;gt;pow" style="rhombus;whiteSpace=wrap;html=1;" vertex="1" parent="WIyWlLk6GJQsqaUBKTNV-1">
          <mxGeometry x="273.75" y="310" width="102.5" height="110" as="geometry" />
        </mxCell>
        <mxCell id="ZSKaTCZfCcyE3yUoJDAZ-12" style="edgeStyle=orthogonalEdgeStyle;rounded=0;orthogonalLoop=1;jettySize=auto;html=1;" edge="1" parent="WIyWlLk6GJQsqaUBKTNV-1" source="ZSKaTCZfCcyE3yUoJDAZ-7" target="ZSKaTCZfCcyE3yUoJDAZ-13">
          <mxGeometry relative="1" as="geometry">
            <mxPoint x="620" y="300" as="targetPoint" />
          </mxGeometry>
        </mxCell>
        <mxCell id="ZSKaTCZfCcyE3yUoJDAZ-7" value="pow=pow*2" style="shape=parallelogram;perimeter=parallelogramPerimeter;whiteSpace=wrap;html=1;fixedSize=1;" vertex="1" parent="WIyWlLk6GJQsqaUBKTNV-1">
          <mxGeometry x="460" y="335" width="120" height="60" as="geometry" />
        </mxCell>
        <mxCell id="ZSKaTCZfCcyE3yUoJDAZ-14" style="edgeStyle=orthogonalEdgeStyle;rounded=0;orthogonalLoop=1;jettySize=auto;html=1;" edge="1" parent="WIyWlLk6GJQsqaUBKTNV-1" source="ZSKaTCZfCcyE3yUoJDAZ-13">
          <mxGeometry relative="1" as="geometry">
            <mxPoint x="330" y="280" as="targetPoint" />
          </mxGeometry>
        </mxCell>
        <mxCell id="ZSKaTCZfCcyE3yUoJDAZ-15" value="false" style="edgeLabel;html=1;align=center;verticalAlign=middle;resizable=0;points=[];" vertex="1" connectable="0" parent="ZSKaTCZfCcyE3yUoJDAZ-14">
          <mxGeometry x="-0.2625" y="-1" relative="1" as="geometry">
            <mxPoint as="offset" />
          </mxGeometry>
        </mxCell>
        <mxCell id="ZSKaTCZfCcyE3yUoJDAZ-16" value="true" style="edgeStyle=orthogonalEdgeStyle;rounded=0;orthogonalLoop=1;jettySize=auto;html=1;" edge="1" parent="WIyWlLk6GJQsqaUBKTNV-1" source="ZSKaTCZfCcyE3yUoJDAZ-13" target="ZSKaTCZfCcyE3yUoJDAZ-17">
          <mxGeometry relative="1" as="geometry">
            <mxPoint x="730" y="250" as="targetPoint" />
          </mxGeometry>
        </mxCell>
        <mxCell id="ZSKaTCZfCcyE3yUoJDAZ-13" value="num==pow" style="rhombus;whiteSpace=wrap;html=1;" vertex="1" parent="WIyWlLk6GJQsqaUBKTNV-1">
          <mxGeometry x="460" y="200" width="120" height="100" as="geometry" />
        </mxCell>
        <mxCell id="ZSKaTCZfCcyE3yUoJDAZ-19" style="edgeStyle=orthogonalEdgeStyle;rounded=0;orthogonalLoop=1;jettySize=auto;html=1;entryX=1.001;entryY=0.634;entryDx=0;entryDy=0;entryPerimeter=0;" edge="1" parent="WIyWlLk6GJQsqaUBKTNV-1" source="ZSKaTCZfCcyE3yUoJDAZ-17" target="ZSKaTCZfCcyE3yUoJDAZ-21">
          <mxGeometry relative="1" as="geometry">
            <mxPoint x="790" y="660" as="targetPoint" />
            <Array as="points">
              <mxPoint x="690" y="700" />
              <mxPoint x="620" y="700" />
            </Array>
          </mxGeometry>
        </mxCell>
        <mxCell id="ZSKaTCZfCcyE3yUoJDAZ-17" value="print( quvvetlidir)" style="shape=parallelogram;perimeter=parallelogramPerimeter;whiteSpace=wrap;html=1;fixedSize=1;" vertex="1" parent="WIyWlLk6GJQsqaUBKTNV-1">
          <mxGeometry x="630" y="220" width="120" height="60" as="geometry" />
        </mxCell>
        <mxCell id="ZSKaTCZfCcyE3yUoJDAZ-20" style="edgeStyle=orthogonalEdgeStyle;rounded=0;orthogonalLoop=1;jettySize=auto;html=1;" edge="1" parent="WIyWlLk6GJQsqaUBKTNV-1" source="ZSKaTCZfCcyE3yUoJDAZ-18" target="ZSKaTCZfCcyE3yUoJDAZ-21">
          <mxGeometry relative="1" as="geometry">
            <mxPoint x="560" y="720" as="targetPoint" />
            <Array as="points">
              <mxPoint x="325" y="700" />
              <mxPoint x="560" y="700" />
            </Array>
          </mxGeometry>
        </mxCell>
        <mxCell id="ZSKaTCZfCcyE3yUoJDAZ-18" value="print(quvvetli deyil)" style="shape=parallelogram;perimeter=parallelogramPerimeter;whiteSpace=wrap;html=1;fixedSize=1;" vertex="1" parent="WIyWlLk6GJQsqaUBKTNV-1">
          <mxGeometry x="265" y="520" width="120" height="60" as="geometry" />
        </mxCell>
        <mxCell id="ZSKaTCZfCcyE3yUoJDAZ-21" value="End" style="ellipse;whiteSpace=wrap;html=1;" vertex="1" parent="WIyWlLk6GJQsqaUBKTNV-1">
          <mxGeometry x="500" y="660" width="120" height="80" as="geometry" />
        </mxCell>
        <mxCell id="ZSKaTCZfCcyE3yUoJDAZ-23" value="&lt;span style=&quot;color: rgb(95 , 99 , 104) ; font-family: &amp;#34;roboto&amp;#34; , &amp;#34;robotodraft&amp;#34; , &amp;#34;helvetica&amp;#34; , &amp;#34;arial&amp;#34; , sans-serif ; font-size: 14px ; letter-spacing: 0.2px ; background-color: rgb(255 , 255 , 255)&quot;&gt;Arrayda 3 rəqəmli ədədlərin cəmi ilə digər ədədlərin cəmi arasındakı fərqi tapan algorithm qurun;&lt;/span&gt;" style="text;html=1;strokeColor=none;fillColor=none;align=center;verticalAlign=middle;whiteSpace=wrap;rounded=0;" vertex="1" parent="WIyWlLk6GJQsqaUBKTNV-1">
          <mxGeometry x="250" y="790" width="300" height="70" as="geometry" />
        </mxCell>
        <mxCell id="ZSKaTCZfCcyE3yUoJDAZ-25" style="edgeStyle=orthogonalEdgeStyle;rounded=0;orthogonalLoop=1;jettySize=auto;html=1;" edge="1" parent="WIyWlLk6GJQsqaUBKTNV-1" source="ZSKaTCZfCcyE3yUoJDAZ-24" target="ZSKaTCZfCcyE3yUoJDAZ-26">
          <mxGeometry relative="1" as="geometry">
            <mxPoint x="390" y="1010" as="targetPoint" />
          </mxGeometry>
        </mxCell>
        <mxCell id="ZSKaTCZfCcyE3yUoJDAZ-24" value="Start" style="ellipse;whiteSpace=wrap;html=1;" vertex="1" parent="WIyWlLk6GJQsqaUBKTNV-1">
          <mxGeometry x="330" y="870" width="120" height="80" as="geometry" />
        </mxCell>
        <mxCell id="ZSKaTCZfCcyE3yUoJDAZ-28" value="" style="edgeStyle=orthogonalEdgeStyle;rounded=0;orthogonalLoop=1;jettySize=auto;html=1;" edge="1" parent="WIyWlLk6GJQsqaUBKTNV-1" source="ZSKaTCZfCcyE3yUoJDAZ-26" target="ZSKaTCZfCcyE3yUoJDAZ-27">
          <mxGeometry relative="1" as="geometry" />
        </mxCell>
        <mxCell id="ZSKaTCZfCcyE3yUoJDAZ-26" value="let arr,s,sum=0,sums=0,total" style="shape=parallelogram;perimeter=parallelogramPerimeter;whiteSpace=wrap;html=1;fixedSize=1;" vertex="1" parent="WIyWlLk6GJQsqaUBKTNV-1">
          <mxGeometry x="295" y="1010" width="190" height="70" as="geometry" />
        </mxCell>
        <mxCell id="ZSKaTCZfCcyE3yUoJDAZ-30" value="" style="edgeStyle=orthogonalEdgeStyle;rounded=0;orthogonalLoop=1;jettySize=auto;html=1;" edge="1" parent="WIyWlLk6GJQsqaUBKTNV-1" source="ZSKaTCZfCcyE3yUoJDAZ-27" target="ZSKaTCZfCcyE3yUoJDAZ-29">
          <mxGeometry relative="1" as="geometry" />
        </mxCell>
        <mxCell id="ZSKaTCZfCcyE3yUoJDAZ-42" value="true" style="edgeLabel;html=1;align=center;verticalAlign=middle;resizable=0;points=[];" vertex="1" connectable="0" parent="ZSKaTCZfCcyE3yUoJDAZ-30">
          <mxGeometry x="-0.2147" y="1" relative="1" as="geometry">
            <mxPoint as="offset" />
          </mxGeometry>
        </mxCell>
        <mxCell id="ZSKaTCZfCcyE3yUoJDAZ-43" style="edgeStyle=orthogonalEdgeStyle;rounded=0;orthogonalLoop=1;jettySize=auto;html=1;" edge="1" parent="WIyWlLk6GJQsqaUBKTNV-1" source="ZSKaTCZfCcyE3yUoJDAZ-27">
          <mxGeometry relative="1" as="geometry">
            <mxPoint x="390" y="1420" as="targetPoint" />
          </mxGeometry>
        </mxCell>
        <mxCell id="ZSKaTCZfCcyE3yUoJDAZ-27" value="i&amp;lt;arr.lenght" style="rhombus;whiteSpace=wrap;html=1;" vertex="1" parent="WIyWlLk6GJQsqaUBKTNV-1">
          <mxGeometry x="340" y="1235" width="100" height="110" as="geometry" />
        </mxCell>
        <mxCell id="ZSKaTCZfCcyE3yUoJDAZ-32" style="edgeStyle=orthogonalEdgeStyle;rounded=0;orthogonalLoop=1;jettySize=auto;html=1;" edge="1" parent="WIyWlLk6GJQsqaUBKTNV-1" source="ZSKaTCZfCcyE3yUoJDAZ-29" target="ZSKaTCZfCcyE3yUoJDAZ-31">
          <mxGeometry relative="1" as="geometry" />
        </mxCell>
        <mxCell id="ZSKaTCZfCcyE3yUoJDAZ-29" value="c=(arr[i]-(arr[i]/100))/100" style="whiteSpace=wrap;html=1;" vertex="1" parent="WIyWlLk6GJQsqaUBKTNV-1">
          <mxGeometry x="520" y="1260" width="160" height="60" as="geometry" />
        </mxCell>
        <mxCell id="ZSKaTCZfCcyE3yUoJDAZ-33" value="true" style="edgeStyle=orthogonalEdgeStyle;rounded=0;orthogonalLoop=1;jettySize=auto;html=1;" edge="1" parent="WIyWlLk6GJQsqaUBKTNV-1" source="ZSKaTCZfCcyE3yUoJDAZ-31" target="ZSKaTCZfCcyE3yUoJDAZ-34">
          <mxGeometry relative="1" as="geometry">
            <mxPoint x="800" y="1090" as="targetPoint" />
          </mxGeometry>
        </mxCell>
        <mxCell id="ZSKaTCZfCcyE3yUoJDAZ-38" value="false" style="edgeStyle=orthogonalEdgeStyle;rounded=0;orthogonalLoop=1;jettySize=auto;html=1;" edge="1" parent="WIyWlLk6GJQsqaUBKTNV-1" source="ZSKaTCZfCcyE3yUoJDAZ-31" target="ZSKaTCZfCcyE3yUoJDAZ-39">
          <mxGeometry relative="1" as="geometry">
            <mxPoint x="920" y="1290" as="targetPoint" />
          </mxGeometry>
        </mxCell>
        <mxCell id="ZSKaTCZfCcyE3yUoJDAZ-31" value="c=&amp;gt;1 &amp;amp;&amp;amp; c&amp;lt;10" style="rhombus;whiteSpace=wrap;html=1;" vertex="1" parent="WIyWlLk6GJQsqaUBKTNV-1">
          <mxGeometry x="770" y="1250" width="80" height="80" as="geometry" />
        </mxCell>
        <mxCell id="ZSKaTCZfCcyE3yUoJDAZ-34" value="sum=sum+arr[i]" style="shape=parallelogram;perimeter=parallelogramPerimeter;whiteSpace=wrap;html=1;fixedSize=1;" vertex="1" parent="WIyWlLk6GJQsqaUBKTNV-1">
          <mxGeometry x="750" y="1130" width="120" height="60" as="geometry" />
        </mxCell>
        <mxCell id="ZSKaTCZfCcyE3yUoJDAZ-41" style="edgeStyle=orthogonalEdgeStyle;rounded=0;orthogonalLoop=1;jettySize=auto;html=1;" edge="1" parent="WIyWlLk6GJQsqaUBKTNV-1" source="ZSKaTCZfCcyE3yUoJDAZ-36">
          <mxGeometry relative="1" as="geometry">
            <mxPoint x="390" y="1110" as="targetPoint" />
          </mxGeometry>
        </mxCell>
        <mxCell id="ZSKaTCZfCcyE3yUoJDAZ-36" value="i++" style="rounded=0;whiteSpace=wrap;html=1;" vertex="1" parent="WIyWlLk6GJQsqaUBKTNV-1">
          <mxGeometry x="750" y="1050" width="120" height="60" as="geometry" />
        </mxCell>
        <mxCell id="ZSKaTCZfCcyE3yUoJDAZ-37" value="" style="edgeStyle=orthogonalEdgeStyle;rounded=0;orthogonalLoop=1;jettySize=auto;html=1;endArrow=none;" edge="1" parent="WIyWlLk6GJQsqaUBKTNV-1" source="ZSKaTCZfCcyE3yUoJDAZ-34" target="ZSKaTCZfCcyE3yUoJDAZ-36">
          <mxGeometry relative="1" as="geometry">
            <mxPoint x="800" y="1000" as="targetPoint" />
            <mxPoint x="810.0344827586207" y="1130" as="sourcePoint" />
          </mxGeometry>
        </mxCell>
        <mxCell id="ZSKaTCZfCcyE3yUoJDAZ-40" style="edgeStyle=orthogonalEdgeStyle;rounded=0;orthogonalLoop=1;jettySize=auto;html=1;entryX=1;entryY=0.5;entryDx=0;entryDy=0;" edge="1" parent="WIyWlLk6GJQsqaUBKTNV-1" source="ZSKaTCZfCcyE3yUoJDAZ-39" target="ZSKaTCZfCcyE3yUoJDAZ-36">
          <mxGeometry relative="1" as="geometry">
            <Array as="points">
              <mxPoint x="980" y="1080" />
            </Array>
          </mxGeometry>
        </mxCell>
        <mxCell id="ZSKaTCZfCcyE3yUoJDAZ-39" value="sums=sums+arr[i]" style="shape=parallelogram;perimeter=parallelogramPerimeter;whiteSpace=wrap;html=1;fixedSize=1;" vertex="1" parent="WIyWlLk6GJQsqaUBKTNV-1">
          <mxGeometry x="920" y="1260" width="120" height="60" as="geometry" />
        </mxCell>
        <mxCell id="ZSKaTCZfCcyE3yUoJDAZ-45" style="edgeStyle=orthogonalEdgeStyle;rounded=0;orthogonalLoop=1;jettySize=auto;html=1;" edge="1" parent="WIyWlLk6GJQsqaUBKTNV-1" source="ZSKaTCZfCcyE3yUoJDAZ-44" target="ZSKaTCZfCcyE3yUoJDAZ-46">
          <mxGeometry relative="1" as="geometry">
            <mxPoint x="390" y="1550" as="targetPoint" />
          </mxGeometry>
        </mxCell>
        <mxCell id="ZSKaTCZfCcyE3yUoJDAZ-44" value="print (total)" style="shape=parallelogram;perimeter=parallelogramPerimeter;whiteSpace=wrap;html=1;fixedSize=1;" vertex="1" parent="WIyWlLk6GJQsqaUBKTNV-1">
          <mxGeometry x="340" y="1510" width="120" height="60" as="geometry" />
        </mxCell>
        <mxCell id="ZSKaTCZfCcyE3yUoJDAZ-46" value="end" style="ellipse;whiteSpace=wrap;html=1;" vertex="1" parent="WIyWlLk6GJQsqaUBKTNV-1">
          <mxGeometry x="340" y="1610" width="120" height="80" as="geometry" />
        </mxCell>
        <mxCell id="ZSKaTCZfCcyE3yUoJDAZ-48" style="edgeStyle=orthogonalEdgeStyle;rounded=0;orthogonalLoop=1;jettySize=auto;html=1;exitX=0.5;exitY=1;exitDx=0;exitDy=0;entryX=0.5;entryY=0;entryDx=0;entryDy=0;" edge="1" parent="WIyWlLk6GJQsqaUBKTNV-1" source="ZSKaTCZfCcyE3yUoJDAZ-47" target="ZSKaTCZfCcyE3yUoJDAZ-44">
          <mxGeometry relative="1" as="geometry" />
        </mxCell>
        <mxCell id="ZSKaTCZfCcyE3yUoJDAZ-47" value="&lt;span&gt;total=sum-sums&lt;/span&gt;" style="rounded=0;whiteSpace=wrap;html=1;" vertex="1" parent="WIyWlLk6GJQsqaUBKTNV-1">
          <mxGeometry x="340" y="1420" width="120" height="60" as="geometry" />
        </mxCell>
        <mxCell id="ZSKaTCZfCcyE3yUoJDAZ-49" value="&lt;span style=&quot;color: rgb(95 , 99 , 104) ; font-family: &amp;#34;roboto&amp;#34; , &amp;#34;robotodraft&amp;#34; , &amp;#34;helvetica&amp;#34; , &amp;#34;arial&amp;#34; , sans-serif ; font-size: 14px ; letter-spacing: 0.2px ; background-color: rgb(255 , 255 , 255)&quot;&gt;Arrayi tərsinə çevirəm algorithm qurun;&lt;/span&gt;" style="text;html=1;strokeColor=none;fillColor=none;align=center;verticalAlign=middle;whiteSpace=wrap;rounded=0;" vertex="1" parent="WIyWlLk6GJQsqaUBKTNV-1">
          <mxGeometry x="280" y="1754" width="360" height="30" as="geometry" />
        </mxCell>
        <mxCell id="ZSKaTCZfCcyE3yUoJDAZ-51" style="edgeStyle=orthogonalEdgeStyle;rounded=0;orthogonalLoop=1;jettySize=auto;html=1;" edge="1" parent="WIyWlLk6GJQsqaUBKTNV-1" source="ZSKaTCZfCcyE3yUoJDAZ-50">
          <mxGeometry relative="1" as="geometry">
            <mxPoint x="460" y="1930" as="targetPoint" />
          </mxGeometry>
        </mxCell>
        <mxCell id="ZSKaTCZfCcyE3yUoJDAZ-50" value="start" style="ellipse;whiteSpace=wrap;html=1;" vertex="1" parent="WIyWlLk6GJQsqaUBKTNV-1">
          <mxGeometry x="400" y="1810" width="120" height="80" as="geometry" />
        </mxCell>
        <mxCell id="ZSKaTCZfCcyE3yUoJDAZ-54" value="" style="edgeStyle=orthogonalEdgeStyle;rounded=0;orthogonalLoop=1;jettySize=auto;html=1;" edge="1" parent="WIyWlLk6GJQsqaUBKTNV-1" source="ZSKaTCZfCcyE3yUoJDAZ-52" target="ZSKaTCZfCcyE3yUoJDAZ-53">
          <mxGeometry relative="1" as="geometry" />
        </mxCell>
        <mxCell id="ZSKaTCZfCcyE3yUoJDAZ-52" value="let arr&lt;br&gt;" style="shape=parallelogram;perimeter=parallelogramPerimeter;whiteSpace=wrap;html=1;fixedSize=1;" vertex="1" parent="WIyWlLk6GJQsqaUBKTNV-1">
          <mxGeometry x="400" y="1930" width="120" height="60" as="geometry" />
        </mxCell>
        <mxCell id="ZSKaTCZfCcyE3yUoJDAZ-56" value="" style="edgeStyle=orthogonalEdgeStyle;rounded=0;orthogonalLoop=1;jettySize=auto;html=1;" edge="1" parent="WIyWlLk6GJQsqaUBKTNV-1" source="ZSKaTCZfCcyE3yUoJDAZ-53" target="ZSKaTCZfCcyE3yUoJDAZ-55">
          <mxGeometry relative="1" as="geometry" />
        </mxCell>
        <mxCell id="ZSKaTCZfCcyE3yUoJDAZ-57" value="true" style="edgeLabel;html=1;align=center;verticalAlign=middle;resizable=0;points=[];" vertex="1" connectable="0" parent="ZSKaTCZfCcyE3yUoJDAZ-56">
          <mxGeometry x="0.1599" y="1" relative="1" as="geometry">
            <mxPoint as="offset" />
          </mxGeometry>
        </mxCell>
        <mxCell id="ZSKaTCZfCcyE3yUoJDAZ-59" style="edgeStyle=orthogonalEdgeStyle;rounded=0;orthogonalLoop=1;jettySize=auto;html=1;" edge="1" parent="WIyWlLk6GJQsqaUBKTNV-1" source="ZSKaTCZfCcyE3yUoJDAZ-53">
          <mxGeometry relative="1" as="geometry">
            <mxPoint x="460" y="2280" as="targetPoint" />
          </mxGeometry>
        </mxCell>
        <mxCell id="ZSKaTCZfCcyE3yUoJDAZ-60" value="False" style="edgeLabel;html=1;align=center;verticalAlign=middle;resizable=0;points=[];" vertex="1" connectable="0" parent="ZSKaTCZfCcyE3yUoJDAZ-59">
          <mxGeometry x="-0.2522" y="-2" relative="1" as="geometry">
            <mxPoint as="offset" />
          </mxGeometry>
        </mxCell>
        <mxCell id="ZSKaTCZfCcyE3yUoJDAZ-53" value="int i =0; i&amp;lt;(arr.lenght/2);i++" style="rhombus;whiteSpace=wrap;html=1;" vertex="1" parent="WIyWlLk6GJQsqaUBKTNV-1">
          <mxGeometry x="375" y="2080" width="170" height="130" as="geometry" />
        </mxCell>
        <mxCell id="ZSKaTCZfCcyE3yUoJDAZ-58" style="edgeStyle=orthogonalEdgeStyle;rounded=0;orthogonalLoop=1;jettySize=auto;html=1;" edge="1" parent="WIyWlLk6GJQsqaUBKTNV-1" source="ZSKaTCZfCcyE3yUoJDAZ-55">
          <mxGeometry relative="1" as="geometry">
            <mxPoint x="460" y="2030" as="targetPoint" />
            <Array as="points">
              <mxPoint x="740" y="2030" />
              <mxPoint x="460" y="2030" />
            </Array>
          </mxGeometry>
        </mxCell>
        <mxCell id="ZSKaTCZfCcyE3yUoJDAZ-55" value="int temp =arr[arr.lenght-i-1]&lt;br&gt;arr[arr.lenght-i-1]=arr[i]&lt;br&gt;arr[i]=temp" style="whiteSpace=wrap;html=1;" vertex="1" parent="WIyWlLk6GJQsqaUBKTNV-1">
          <mxGeometry x="650" y="2102.5" width="180" height="85" as="geometry" />
        </mxCell>
        <mxCell id="ZSKaTCZfCcyE3yUoJDAZ-63" value="true" style="edgeStyle=orthogonalEdgeStyle;rounded=0;orthogonalLoop=1;jettySize=auto;html=1;" edge="1" parent="WIyWlLk6GJQsqaUBKTNV-1" source="ZSKaTCZfCcyE3yUoJDAZ-61" target="ZSKaTCZfCcyE3yUoJDAZ-62">
          <mxGeometry relative="1" as="geometry" />
        </mxCell>
        <mxCell id="ZSKaTCZfCcyE3yUoJDAZ-66" style="edgeStyle=orthogonalEdgeStyle;rounded=0;orthogonalLoop=1;jettySize=auto;html=1;" edge="1" parent="WIyWlLk6GJQsqaUBKTNV-1" source="ZSKaTCZfCcyE3yUoJDAZ-61">
          <mxGeometry relative="1" as="geometry">
            <mxPoint x="460" y="2570" as="targetPoint" />
          </mxGeometry>
        </mxCell>
        <mxCell id="ZSKaTCZfCcyE3yUoJDAZ-67" value="false" style="edgeLabel;html=1;align=center;verticalAlign=middle;resizable=0;points=[];" vertex="1" connectable="0" parent="ZSKaTCZfCcyE3yUoJDAZ-66">
          <mxGeometry x="-0.3248" relative="1" as="geometry">
            <mxPoint as="offset" />
          </mxGeometry>
        </mxCell>
        <mxCell id="ZSKaTCZfCcyE3yUoJDAZ-61" value="i=0; i&amp;lt;arr.lenght;i++" style="rhombus;whiteSpace=wrap;html=1;" vertex="1" parent="WIyWlLk6GJQsqaUBKTNV-1">
          <mxGeometry x="365" y="2280" width="190" height="190" as="geometry" />
        </mxCell>
        <mxCell id="ZSKaTCZfCcyE3yUoJDAZ-65" style="edgeStyle=orthogonalEdgeStyle;rounded=0;orthogonalLoop=1;jettySize=auto;html=1;" edge="1" parent="WIyWlLk6GJQsqaUBKTNV-1" source="ZSKaTCZfCcyE3yUoJDAZ-62">
          <mxGeometry relative="1" as="geometry">
            <mxPoint x="460" y="2240" as="targetPoint" />
            <Array as="points">
              <mxPoint x="730" y="2240" />
            </Array>
          </mxGeometry>
        </mxCell>
        <mxCell id="ZSKaTCZfCcyE3yUoJDAZ-62" value="&amp;nbsp;arr[i]" style="whiteSpace=wrap;html=1;" vertex="1" parent="WIyWlLk6GJQsqaUBKTNV-1">
          <mxGeometry x="670" y="2345" width="120" height="60" as="geometry" />
        </mxCell>
        <mxCell id="ZSKaTCZfCcyE3yUoJDAZ-68" value="print (arr[i])" style="shape=parallelogram;perimeter=parallelogramPerimeter;whiteSpace=wrap;html=1;fixedSize=1;" vertex="1" parent="WIyWlLk6GJQsqaUBKTNV-1">
          <mxGeometry x="400" y="2570" width="120" height="60" as="geometry" />
        </mxCell>
      </root>
    </mxGraphModel>
  </diagram>
</mxfile>
